# xmcd
#
# Track frame offsets: 
#        183
#        19845
#        36433
#        55848
#        81470
#        102593
#        124303
#        140653
#        159545
#        179988
#        203728
#        218913
#        237235
#        259425
#
# Disc length: 3666 seconds
#
# Revision: 0
# Processed by: cddbd v1.5.2PL0 Copyright (c) Steve Scherf et al.
# Submitted via: ExactAudioCopyFreeDBPlugin 1.0
#
DISCID=df0e500e
DTITLE=Nick Norman - Il meglio
DYEAR=1900
DGENRE=Blues
TTITLE0=Sotto questo sole
TTITLE1=Ladri di biciclette
TTITLE2=Dr. jazz e Mr. funk
TTITLE3=Bella città
TTITLE4=Heylà come và
TTITLE5=Ah ma che vita è
TTITLE6=Ah che sarà
TTITLE7=Sbatti ben su del bebop
TTITLE8=Givin up
TTITLE9=Chiedi chi erano i Beatles
TTITLE10=Buttati via
TTITLE11=Canzone
TTITLE12=Mille giorni
TTITLE13=Bar biliardo sala da te
EXTD=
EXTT0=
EXTT1=
EXTT2=
EXTT3=
EXTT4=
EXTT5=
EXTT6=
EXTT7=
EXTT8=
EXTT9=
EXTT10=
EXTT11=
EXTT12=
EXTT13=
PLAYORDER=
